<?xml version="1.0" encoding="UTF-8"?>
<svg id="Layer_1" data-name="Layer 1" xmlns="http://www.w3.org/2000/svg" version="1.1" viewBox="0 0 196.1 114.9">
  <defs>
    <style>
      .cls-1, .cls-2 {
        fill: #f5801f;
      }

      .cls-1, .cls-3 {
        stroke: #31302c;
        stroke-miterlimit: 10;
        stroke-width: 23px;
      }

      .cls-4 {
        fill: #31302c;
      }

      .cls-4, .cls-2, .cls-5 {
        stroke-width: 0px;
      }

      .cls-5 {
        fill: #87bee8;
      }

      .cls-3 {
        fill: none;
      }
    </style>
  </defs>
  <path class="cls-3" d="M35.9,40c-3.1-3.6-3.5-6.1-1.7-6.3,2.8-.3,11.7,12.2,20.7,12.2s9-11,4.3-14.5c0,0-2,1.9-7.5,1.9s-12.4-2.5-17.1-2.5c-8.1,0-11.9,5-11.9,10.7,0,13,17,21,23.7,27.8,5.1,5.2,5.5,9.4,3.7,9.4-2.9,0-12.4-12.3-20.2-12.3s-7.7,2.9-7.7,8.1,4,7.3,4,7.3c0,0,2-2.5,7.2-2.5s11.4,2.8,18,2.8,13.1-4.2,13.1-11.1c0-13.5-21.8-23.3-28.5-30.9Z"/>
  <path class="cls-3" d="M85.9,46.3s7.2,25.6,8.1,29.2c1.1,4.7-1.4,6.5-1.4,6.5h21.6s-3.4-2.6-7.3-16.2c0,0-3.8-13.7-4.5-16.5-2.3-9.4-1.4-14.7,0-16.4h-22.7s2.6,3-.2,13.6c-1.1,4.3-3.4,15.9-4.8,21-3.4,12.7-6.3,14.5-6.3,14.5,0,0,6.3,0,11.6,0s6-3,6-6.2c0-6.4-5.5-15.3-3.1-28.8.2-1.3.7-2.4,1.5-2.4s1.4,1.6,1.4,1.6Z"/>
  <path class="cls-3" d="M163.6,32.9h-49.1c6.6,12.7-.2,20.5-.2,20.5,0,0,2.3,2.6,6.9,2.6s8.2-3,8.2-7.5-1.3-7.9-2.2-10.8c-.6-2.1,1.7-3.3,2.9-.3,1.6,3.9,2.8,11.5,2.8,19.9s-.8,17-4.5,24.6h21.6c-3.7-7.5-4.5-16.1-4.5-24.6s1.2-16,2.8-19.9c1.2-3,3.5-1.9,2.9.3-.9,2.9-2.2,7.4-2.2,10.8s2.9,7.5,8.2,7.5,6.9-2.6,6.9-2.6c0,0-6.8-7.8-.2-20.5Z"/>
  <circle class="cls-1" cx="167.2" cy="76.7" r="6.8"/>
  <path class="cls-5" d="M163.6,32.9h-49.1c6.6,12.7-.2,20.5-.2,20.5,0,0,2.3,2.6,6.9,2.6s8.2-3,8.2-7.5-1.3-7.9-2.2-10.8c-.6-2.1,1.7-3.3,2.9-.3,1.6,3.9,2.8,11.5,2.8,19.9s-.8,17-4.5,24.6h21.6c-3.7-7.5-4.5-16.1-4.5-24.6s1.2-16,2.8-19.9c1.2-3,3.5-1.9,2.9.3-.9,2.9-2.2,7.4-2.2,10.8s2.9,7.5,8.2,7.5,6.9-2.6,6.9-2.6c0,0-6.8-7.8-.2-20.5Z"/>
  <path class="cls-5" d="M85.9,46.3s7.2,25.6,8.1,29.2c1.1,4.7-1.4,6.5-1.4,6.5h21.6s-3.4-2.6-7.3-16.2c0,0-3.8-13.7-4.5-16.5-2.3-9.4-1.4-14.7,0-16.4h-22.7s2.6,3-.2,13.6c-1.1,4.3-3.4,15.9-4.8,21-3.4,12.7-6.3,14.5-6.3,14.5,0,0,6.3,0,11.6,0s6-3,6-6.2c0-6.4-5.5-15.3-3.1-28.8.2-1.3.7-2.4,1.5-2.4s1.4,1.6,1.4,1.6Z"/>
  <path class="cls-5" d="M35.9,40c-3.1-3.6-3.5-6.1-1.7-6.3,2.8-.3,11.7,12.2,20.7,12.2s9-11,4.3-14.5c0,0-2,1.9-7.5,1.9s-12.4-2.5-17.1-2.5c-8.1,0-11.9,5-11.9,10.7,0,13,17,21,23.7,27.8,5.1,5.2,5.5,9.4,3.7,9.4-2.9,0-12.4-12.3-20.2-12.3s-7.7,2.9-7.7,8.1,4,7.3,4,7.3c0,0,2-2.5,7.2-2.5s11.4,2.8,18,2.8,13.1-4.2,13.1-11.1c0-13.5-21.8-23.3-28.5-30.9Z"/>
  <circle class="cls-2" cx="167.2" cy="76.7" r="6.8"/>
  <polygon class="cls-4" points="66.5 27.5 59.6 27.5 58.1 29.9 63.7 33.1 64.8 37.5 60.5 47.4 54.5 51.2 61 57.4 69.7 68.9 73 58.8 78.1 43.9 79.1 33.8 66.5 27.5"/>
  <polygon class="cls-4" points="107.3 54.1 102.9 37.8 108.8 28.2 112.4 34.9 115 42.5 111.7 52.8 107.3 54.1"/>
  <polygon class="cls-4" points="118 79.8 109.8 66.3 108.7 53.7 116.8 58.5 127.8 58.6 128.6 63.9 127.6 75.5 122.4 83.7 118 79.8"/>
  <polygon class="cls-4" points="158.1 87.4 163.1 87.4 161.5 83.5 156.8 73.6 165 65.7 170.8 66.1 170.9 53.5 163.6 55.9 156.8 58.6 149.1 58.9 149.1 67.9 152.5 80.1 158.1 87.4"/>
</svg>