<?xml version="1.0" encoding="UTF-8"?>
<svg id="Layer_1" data-name="Layer 1" xmlns="http://www.w3.org/2000/svg" version="1.1" viewBox="0 0 196.1 114.9">
  <defs>
    <style>
      .cls-1 {
        fill: #f6f4ee;
      }

      .cls-1, .cls-2, .cls-3 {
        stroke-width: 0px;
      }

      .cls-4 {
        fill: none;
      }

      .cls-4, .cls-5 {
        stroke: #87bee8;
        stroke-miterlimit: 10;
        stroke-width: 23px;
      }

      .cls-2, .cls-5 {
        fill: #f5801f;
      }

      .cls-3 {
        fill: #87bee8;
      }
    </style>
  </defs>
  <path class="cls-4" d="M26,40c-3.1-3.6-3.5-6.1-1.7-6.3,2.8-.3,11.7,12.2,20.7,12.2s9-11,4.3-14.5c0,0-2,1.9-7.5,1.9s-12.4-2.5-17.1-2.5c-8.1,0-11.9,5-11.9,10.7,0,13,17,21,23.7,27.8,5.1,5.2,5.5,9.4,3.7,9.4-2.9,0-12.4-12.3-20.2-12.3s-7.7,2.9-7.7,8.1,4,7.3,4,7.3c0,0,2-2.5,7.2-2.5s11.4,2.8,18,2.8,13.1-4.2,13.1-11.1c0-13.5-21.8-23.3-28.5-30.9h0Z"/>
  <path class="cls-4" d="M76,46.3s7.2,25.6,8.1,29.2c1.1,4.7-1.4,6.5-1.4,6.5h21.6s-3.4-2.6-7.3-16.2c0,0-3.8-13.7-4.5-16.5-2.3-9.4-1.4-14.7,0-16.4h-22.7s2.6,3-.2,13.6c-1.1,4.3-3.4,15.9-4.8,21-3.4,12.7-6.3,14.5-6.3,14.5h11.6c5.3,0,6-3,6-6.2,0-6.4-5.5-15.3-3.1-28.8.2-1.3.7-2.4,1.5-2.4s1.4,1.6,1.4,1.6h.1Z"/>
  <path class="cls-4" d="M153.7,32.9h-49.1c6.6,12.7-.2,20.5-.2,20.5,0,0,2.3,2.6,6.9,2.6s8.2-3,8.2-7.5-1.3-7.9-2.2-10.8c-.6-2.1,1.7-3.3,2.9-.3,1.6,3.9,2.8,11.5,2.8,19.9s-.8,17-4.5,24.6h21.6c-3.7-7.5-4.5-16.1-4.5-24.6s1.2-16,2.8-19.9c1.2-3,3.5-1.9,2.9.3-.9,2.9-2.2,7.4-2.2,10.8s2.9,7.5,8.2,7.5,6.9-2.6,6.9-2.6c0,0-6.8-7.8-.2-20.5h-.3Z"/>
  <circle class="cls-5" cx="157.3" cy="76.7" r="6.8"/>
  <path class="cls-1" d="M153.7,32.9h-49.1c6.6,12.7-.2,20.5-.2,20.5,0,0,2.3,2.6,6.9,2.6s8.2-3,8.2-7.5-1.3-7.9-2.2-10.8c-.6-2.1,1.7-3.3,2.9-.3,1.6,3.9,2.8,11.5,2.8,19.9s-.8,17-4.5,24.6h21.6c-3.7-7.5-4.5-16.1-4.5-24.6s1.2-16,2.8-19.9c1.2-3,3.5-1.9,2.9.3-.9,2.9-2.2,7.4-2.2,10.8s2.9,7.5,8.2,7.5,6.9-2.6,6.9-2.6c0,0-6.8-7.8-.2-20.5h-.3Z"/>
  <path class="cls-1" d="M76,46.3s7.2,25.6,8.1,29.2c1.1,4.7-1.4,6.5-1.4,6.5h21.6s-3.4-2.6-7.3-16.2c0,0-3.8-13.7-4.5-16.5-2.3-9.4-1.4-14.7,0-16.4h-22.7s2.6,3-.2,13.6c-1.1,4.3-3.4,15.9-4.8,21-3.4,12.7-6.3,14.5-6.3,14.5h11.6c5.3,0,6-3,6-6.2,0-6.4-5.5-15.3-3.1-28.8.2-1.3.7-2.4,1.5-2.4s1.4,1.6,1.4,1.6h.1Z"/>
  <path class="cls-1" d="M26,40c-3.1-3.6-3.5-6.1-1.7-6.3,2.8-.3,11.7,12.2,20.7,12.2s9-11,4.3-14.5c0,0-2,1.9-7.5,1.9s-12.4-2.5-17.1-2.5c-8.1,0-11.9,5-11.9,10.7,0,13,17,21,23.7,27.8,5.1,5.2,5.5,9.4,3.7,9.4-2.9,0-12.4-12.3-20.2-12.3s-7.7,2.9-7.7,8.1,4,7.3,4,7.3c0,0,2-2.5,7.2-2.5s11.4,2.8,18,2.8,13.1-4.2,13.1-11.1c0-13.5-21.8-23.3-28.5-30.9h0Z"/>
  <circle class="cls-2" cx="157.3" cy="76.7" r="6.8"/>
  <polygon class="cls-3" points="56.6 27.5 49.7 27.5 48.2 29.9 53.8 33.1 54.9 37.5 50.6 47.4 44.6 51.2 51.1 57.4 59.8 68.9 63.1 58.8 68.2 43.9 69.2 33.8 56.6 27.5"/>
  <polygon class="cls-3" points="97.4 54.1 93 37.8 98.9 28.2 102.5 34.9 105.1 42.5 101.8 52.8 97.4 54.1"/>
  <polygon class="cls-3" points="108.1 79.8 99.9 66.3 98.8 53.7 106.9 58.5 117.9 58.6 118.7 63.9 117.7 75.5 112.5 83.7 108.1 79.8"/>
  <polygon class="cls-3" points="148.2 87.4 153.2 87.4 151.6 83.5 146.9 73.6 155.1 65.7 160.9 66.1 161 53.5 153.7 55.9 146.9 58.6 139.2 58.9 139.2 67.9 142.6 80.1 148.2 87.4"/>
  <rect class="cls-3" x="-52.6" y="-19.8" width="17.3" height="14.3"/>
</svg>